<svg
  width="20"
  height="20"
  viewBox="0 0 20 20"
  fill="currentColor"
  xmlns="http://www.w3.org/2000/svg"
>
  <path
    d="M12.86 9.5C12.86 10.11 12.41 10.61 11.84 10.61C11.28 10.61 10.82 10.11 10.82 9.5C10.82 8.89 11.27 8.39 11.84 8.39C12.41 8.39 12.86 8.89 12.86 9.5ZM8.19 8.39C7.62 8.39 7.17 8.89 7.17 9.5C7.17 10.11 7.63 10.61 8.19 10.61C8.76 10.61 9.21 10.11 9.21 9.5C9.22 8.89 8.76 8.39 8.19 8.39ZM18.75 2.06V20C16.2307 17.7737 17.0364 18.5106 14.11 15.79L14.64 17.64H3.3C2.17 17.64 1.25 16.72 1.25 15.58V2.06C1.25 0.92 2.17 0 3.3 0H16.7C17.83 0 18.75 0.92 18.75 2.06ZM15.9 11.54C15.9 8.32 14.46 5.71 14.46 5.71C13.02 4.63 11.65 4.66 11.65 4.66L11.51 4.82C13.21 5.34 14 6.09 14 6.09C11.6246 4.78809 8.83422 4.78785 6.53 5.8C6.16 5.97 5.94 6.09 5.94 6.09C5.94 6.09 6.77 5.3 8.57 4.78L8.47 4.66C8.47 4.66 7.1 4.63 5.66 5.71C5.66 5.71 4.22 8.32 4.22 11.54C4.22 11.54 5.06 12.99 7.27 13.06C7.27 13.06 7.64 12.61 7.94 12.23C6.67 11.85 6.19 11.05 6.19 11.05C6.33711 11.153 6.57969 11.2864 6.6 11.3C8.28789 12.2452 10.6855 12.5549 12.84 11.65C13.19 11.52 13.58 11.33 13.99 11.06C13.99 11.06 13.49 11.88 12.18 12.25C12.48 12.63 12.84 13.06 12.84 13.06C15.05 12.99 15.9 11.54 15.9 11.54Z"
    fill="currentColor"
  />
</svg>
