<svg xmlns="http://www.w3.org/2000/svg">
  <defs>
    <symbol
      width="52"
      height="52"
      viewBox="0 0 52 52"
      fill="currentColor"
      id="icon-discord"
    >
      <path
        d="M33.436 24.7C33.436 26.286 32.266 27.586 30.784 27.586C29.328 27.586 28.132 26.286 28.132 24.7C28.132 23.114 29.302 21.814 30.784 21.814C32.266 21.814 33.436 23.114 33.436 24.7ZM21.294 21.814C19.812 21.814 18.642 23.114 18.642 24.7C18.642 26.286 19.838 27.586 21.294 27.586C22.776 27.586 23.946 26.286 23.946 24.7C23.972 23.114 22.776 21.814 21.294 21.814ZM48.75 5.356V52C42.1998 46.2115 44.2947 48.1276 36.686 41.054L38.064 45.864H8.58C5.642 45.864 3.25 43.472 3.25 40.508V5.356C3.25 2.392 5.642 0 8.58 0H43.42C46.358 0 48.75 2.392 48.75 5.356ZM41.34 30.004C41.34 21.632 37.596 14.846 37.596 14.846C33.852 12.038 30.29 12.116 30.29 12.116L29.926 12.532C34.346 13.884 36.4 15.834 36.4 15.834C30.2239 12.449 22.969 12.4484 16.978 15.08C16.016 15.522 15.444 15.834 15.444 15.834C15.444 15.834 17.602 13.78 22.282 12.428L22.022 12.116C22.022 12.116 18.46 12.038 14.716 14.846C14.716 14.846 10.972 21.632 10.972 30.004C10.972 30.004 13.156 33.774 18.902 33.956C18.902 33.956 19.864 32.786 20.644 31.798C17.342 30.81 16.094 28.73 16.094 28.73C16.4765 28.9977 17.1072 29.3448 17.16 29.38C21.5485 31.8376 27.7822 32.6428 33.384 30.29C34.294 29.952 35.308 29.458 36.374 28.756C36.374 28.756 35.074 30.888 31.668 31.85C32.448 32.838 33.384 33.956 33.384 33.956C39.13 33.774 41.34 30.004 41.34 30.004Z"
        fill="currentColor"
      />
    </symbol>

    <symbol
      width="52"
      height="52"
      viewBox="0 0 52 52"
      fill="none"
      id="icon-twitter"
    >
      <path
        d="M43.875 3.25H8.125C5.43359 3.25 3.25 5.43359 3.25 8.125V43.875C3.25 46.5664 5.43359 48.75 8.125 48.75H43.875C46.5664 48.75 48.75 46.5664 48.75 43.875V8.125C48.75 5.43359 46.5664 3.25 43.875 3.25ZM38.9086 19.3781C38.9289 19.6625 38.9289 19.957 38.9289 20.2414C38.9289 29.0469 32.2258 39.193 19.9773 39.193C16.1992 39.193 12.6953 38.0961 9.75 36.207C10.2883 36.268 10.8063 36.2883 11.3547 36.2883C14.4727 36.2883 17.3367 35.232 19.6219 33.4445C16.6969 33.3836 14.2391 31.4641 13.3961 28.8234C14.4219 28.9758 15.3461 28.9758 16.4023 28.7016C13.3555 28.082 11.0703 25.4008 11.0703 22.1609V22.0797C11.9539 22.5773 12.9898 22.882 14.0766 22.9227C13.1629 22.3149 12.414 21.4905 11.8965 20.5229C11.379 19.5553 11.1091 18.4746 11.1109 17.3773C11.1109 16.1383 11.4359 15.0008 12.0148 14.0156C15.2953 18.0578 20.2211 20.6984 25.7461 20.9828C24.8016 16.4633 28.1836 12.7969 32.2461 12.7969C34.1656 12.7969 35.8922 13.5992 37.1109 14.8992C38.6141 14.6148 40.0563 14.0562 41.3359 13.2945C40.8383 14.8383 39.7922 16.1383 38.4109 16.9609C39.7516 16.8188 41.0516 16.443 42.25 15.925C41.3461 17.2555 40.2086 18.4336 38.9086 19.3781Z"
        fill="currentColor"
      />
    </symbol>

    <symbol
      width="52"
      height="52"
      viewBox="0 0 52 52"
      fill="none"
      id="icon-twitch"
    >
      <path
        d="M12.5353 0L3.25 9.28525V42.7147H14.3942V52L23.6795 42.7147H31.1025L47.8205 26V0H12.5353ZM44.1058 24.1442L36.6795 31.5705H29.25L22.75 38.0705V31.5705H14.3942V3.71475H44.1058V24.1442Z"
        fill="currentColor"
      />
      <path
        d="M38.5352 10.2148H34.8205V21.3526H38.5352V10.2148ZM28.3205 10.2148H24.6057V21.3526H28.3205V10.2148Z"
        fill="currentColor"
      />
    </symbol>
  </defs>
</svg>
