<svg width="534" height="48" viewBox="0 0 534 48" fill="none" xmlns="http://www.w3.org/2000/svg">
<path d="M1.53886 48C1.11917 48 0.746114 47.8601 0.419689 47.5802C0.139896 47.2536 0 46.8805 0 46.4606V1.53936C0 1.11953 0.139896 0.76968 0.419689 0.489797C0.746114 0.163266 1.11917 0 1.53886 0H26.0207C27.6995 0 29.285 0.32653 30.7772 0.979591C32.316 1.63265 33.6451 2.51895 34.7642 3.63849C35.8834 4.75802 36.7694 6.06414 37.4223 7.55685C38.0751 9.04957 38.4015 10.6589 38.4015 12.3848V35.6152C38.4015 37.3411 38.0751 38.9504 37.4223 40.4431C36.7694 41.9359 35.8834 43.242 34.7642 44.3615C33.6451 45.4811 32.316 46.3673 30.7772 47.0204C29.285 47.6735 27.6995 48 26.0207 48H1.53886ZM9.5829 38.414H26.0207C26.8135 38.414 27.4663 38.1574 27.9793 37.6443C28.4922 37.0845 28.7487 36.4082 28.7487 35.6152V12.3848C28.7487 11.5918 28.4922 10.9388 27.9793 10.4257C27.4663 9.86589 26.8135 9.58601 26.0207 9.58601H9.5829V38.414Z" fill="#FF9E7A"/>
<path d="M99.5548 8.11662C99.5548 8.53644 99.4149 8.8863 99.1351 9.16618C98.8553 9.44606 98.5056 9.58601 98.0859 9.58601H72.2051V19.242H95.6377C96.0574 19.242 96.4071 19.3819 96.6869 19.6618C97.0133 19.9417 97.1765 20.2915 97.1765 20.7114V27.2886C97.1765 27.7085 97.0133 28.0816 96.6869 28.4082C96.4071 28.688 96.0574 28.828 95.6377 28.828H72.2051V38.414H98.0859C98.5056 38.414 98.8553 38.5773 99.1351 38.9038C99.4149 39.1837 99.5548 39.5335 99.5548 39.9534V46.4606C99.5548 46.8805 99.4149 47.2536 99.1351 47.5802C98.8553 47.8601 98.5056 48 98.0859 48H64.0911C63.6714 48 63.3217 47.8601 63.0419 47.5802C62.7621 47.2536 62.6222 46.8805 62.6222 46.4606V1.53936C62.6222 1.11953 62.7621 0.76968 63.0419 0.489797C63.3217 0.163266 63.6714 0 64.0911 0H98.0859C98.5056 0 98.8553 0.163266 99.1351 0.489797C99.4149 0.76968 99.5548 1.11953 99.5548 1.53936V8.11662Z" fill="#FF9E7A"/>
<path d="M149.448 48H136.438C136.018 48 135.598 47.8601 135.179 47.5802C134.759 47.3003 134.479 46.9738 134.339 46.6006L124.337 21.551C124.15 21.1778 124.01 20.7114 123.917 20.1516C123.824 19.5452 123.777 19.0321 123.777 18.6122V1.53936C123.777 1.11953 123.917 0.76968 124.197 0.489797C124.477 0.163266 124.826 0 125.246 0H131.821C132.241 0 132.591 0.163266 132.87 0.489797C133.197 0.76968 133.36 1.11953 133.36 1.53936V16.793C133.36 17.2128 133.407 17.7026 133.5 18.2624C133.593 18.8222 133.733 19.2886 133.92 19.6618L141.404 38.414H144.482L151.966 19.6618C152.153 19.2886 152.293 18.8222 152.386 18.2624C152.479 17.7026 152.526 17.2128 152.526 16.793V1.53936C152.526 1.11953 152.666 0.76968 152.945 0.489797C153.272 0.163266 153.645 0 154.065 0H160.64C161.059 0 161.409 0.163266 161.689 0.489797C161.969 0.76968 162.109 1.11953 162.109 1.53936V18.6122C162.109 19.0321 162.062 19.5452 161.969 20.1516C161.875 20.7114 161.736 21.1778 161.549 21.551L151.546 46.6006C151.407 46.9738 151.127 47.3003 150.707 47.5802C150.287 47.8601 149.868 48 149.448 48Z" fill="#FF9E7A"/>
<path d="M284.348 0C284.768 0 285.118 0.163266 285.398 0.489797C285.724 0.76968 285.887 1.11953 285.887 1.53936V8.11662C285.887 8.53644 285.724 8.8863 285.398 9.16618C285.118 9.44606 284.768 9.58601 284.348 9.58601H271.478V46.4606C271.478 46.8805 271.315 47.2536 270.988 47.5802C270.709 47.8601 270.359 48 269.939 48H263.364C262.944 48 262.595 47.8601 262.315 47.5802C262.035 47.2536 261.895 46.8805 261.895 46.4606V9.58601H249.025C248.605 9.58601 248.232 9.44606 247.906 9.16618C247.626 8.8863 247.486 8.53644 247.486 8.11662V1.53936C247.486 1.11953 247.626 0.76968 247.906 0.489797C248.232 0.163266 248.605 0 249.025 0H284.348Z" fill="#FF9E7A"/>
<path d="M335.149 0C335.569 0 335.965 0.139943 336.339 0.419828C336.758 0.699711 337.038 1.02624 337.178 1.39942L347.25 26.449C347.39 26.8222 347.507 27.312 347.6 27.9184C347.74 28.4781 347.81 28.9679 347.81 29.3878V46.4606C347.81 46.8805 347.647 47.2536 347.32 47.5802C347.041 47.8601 346.691 48 346.271 48H339.696C339.276 48 338.903 47.8601 338.577 47.5802C338.297 47.2536 338.157 46.8805 338.157 46.4606V38.414H318.991V46.4606C318.991 46.8805 318.828 47.2536 318.502 47.5802C318.222 47.8601 317.872 48 317.453 48H310.947C310.528 48 310.155 47.8601 309.828 47.5802C309.548 47.2536 309.409 46.8805 309.409 46.4606V29.3878C309.409 28.9679 309.455 28.4781 309.548 27.9184C309.688 27.312 309.828 26.8222 309.968 26.449L319.971 1.39942C320.157 1.02624 320.437 0.699711 320.81 0.419828C321.23 0.139943 321.649 0 322.069 0H335.149ZM319.341 28.828H337.807L330.113 9.58601H327.035L319.341 28.828Z" fill="#FF9E7A"/>
<path d="M407.634 48H374.899C374.479 48 374.106 47.8601 373.779 47.5802C373.5 47.2536 373.36 46.8805 373.36 46.4606V1.53936C373.36 1.11953 373.5 0.76968 373.779 0.489797C374.106 0.163266 374.479 0 374.899 0H381.404C381.823 0 382.173 0.163266 382.453 0.489797C382.779 0.76968 382.943 1.11953 382.943 1.53936V38.414H407.634C408.054 38.414 408.404 38.5773 408.683 38.9038C408.963 39.1837 409.103 39.5335 409.103 39.9534V46.4606C409.103 46.8805 408.963 47.2536 408.683 47.5802C408.404 47.8601 408.054 48 407.634 48Z" fill="#FF9E7A"/>
<path d="M471.096 46.6706C471.329 47.0437 471.352 47.3703 471.166 47.6501C471.026 47.8834 470.746 48 470.326 48H462.352C461.933 48 461.513 47.8834 461.093 47.6501C460.674 47.3703 460.347 47.0437 460.114 46.6706L449.971 28.828H443.187V46.4606C443.187 46.8805 443.023 47.2536 442.697 47.5802C442.417 47.8601 442.067 48 441.648 48H435.073C434.653 48 434.303 47.8601 434.023 47.5802C433.744 47.2536 433.604 46.8805 433.604 46.4606V1.53936C433.604 1.11953 433.744 0.76968 434.023 0.489797C434.303 0.163266 434.653 0 435.073 0H441.648C442.067 0 442.417 0.163266 442.697 0.489797C443.023 0.76968 443.187 1.11953 443.187 1.53936V19.242H449.971L460.114 1.32944C460.347 0.956269 460.674 0.653064 461.093 0.419828C461.513 0.139943 461.933 0 462.352 0H470.326C470.746 0 471.026 0.139943 471.166 0.419828C471.352 0.653064 471.329 0.956269 471.096 1.32944L458.295 24L471.096 46.6706Z" fill="#FF9E7A"/>
<path d="M525.464 14.414C525.044 14.414 524.671 14.2741 524.345 13.9942C524.065 13.6676 523.925 13.2945 523.925 12.8746V12.3848C523.925 11.5918 523.669 10.9388 523.156 10.4257C522.643 9.86589 521.99 9.58601 521.197 9.58601H507.487C506.741 9.58601 506.088 9.86589 505.529 10.4257C505.016 10.9388 504.759 11.5918 504.759 12.3848V16.4431C504.759 17.2362 505.016 17.9125 505.529 18.4723C506.088 18.9854 506.741 19.242 507.487 19.242H521.197C522.876 19.242 524.462 19.5685 525.954 20.2216C527.446 20.8746 528.752 21.7609 529.871 22.8805C530.99 24 531.876 25.3061 532.529 26.7988C533.182 28.2915 533.508 29.8775 533.508 31.5569V35.6152C533.508 37.3411 533.182 38.9504 532.529 40.4431C531.876 41.9359 530.99 43.242 529.871 44.3615C528.752 45.4811 527.446 46.3673 525.954 47.0204C524.462 47.6735 522.876 48 521.197 48H507.487C505.809 48 504.223 47.6735 502.731 47.0204C501.239 46.3673 499.933 45.4811 498.814 44.3615C497.695 43.242 496.809 41.9359 496.156 40.4431C495.503 38.9504 495.177 37.3411 495.177 35.6152V35.1254C495.177 34.7055 495.316 34.3557 495.596 34.0758C495.923 33.7493 496.296 33.586 496.715 33.586H503.221C503.64 33.586 503.99 33.7493 504.27 34.0758C504.596 34.3557 504.759 34.7055 504.759 35.1254V35.6152C504.759 36.4082 505.016 37.0845 505.529 37.6443C506.088 38.1574 506.741 38.414 507.487 38.414H521.197C521.99 38.414 522.643 38.1574 523.156 37.6443C523.669 37.0845 523.925 36.4082 523.925 35.6152V31.5569C523.925 30.7638 523.669 30.1108 523.156 29.5977C522.643 29.0846 521.99 28.828 521.197 28.828H507.487C505.809 28.828 504.223 28.5015 502.731 27.8484C501.239 27.1953 499.933 26.309 498.814 25.1895C497.695 24.07 496.809 22.7638 496.156 21.2711C495.503 19.7318 495.177 18.1224 495.177 16.4431V12.3848C495.177 10.6589 495.503 9.04957 496.156 7.55685C496.809 6.06414 497.695 4.75802 498.814 3.63849C499.933 2.51895 501.239 1.63265 502.731 0.979591C504.223 0.32653 505.809 0 507.487 0H521.197C522.876 0 524.462 0.32653 525.954 0.979591C527.446 1.63265 528.752 2.51895 529.871 3.63849C530.99 4.75802 531.876 6.06414 532.529 7.55685C533.182 9.04957 533.508 10.6589 533.508 12.3848V12.8746C533.508 13.2945 533.368 13.6676 533.088 13.9942C532.809 14.2741 532.459 14.414 532.039 14.414H525.464Z" fill="#FF9E7A"/>
</svg>
