<svg
  width="250"
  height="250"
  viewBox="0 0 250 250"
  fill="none"
  xmlns="http://www.w3.org/2000/svg"
>
  <path
    fill-rule="evenodd"
    clip-rule="evenodd"
    d="M37 126C53.5685 126 67 113.24 67 97.5C67 81.7599 53.5685 69 37 69C20.4315 69 7 81.7599 7 97.5C7 113.24 20.4315 126 37 126ZM37.5 116C48.2696 116 57 107.717 57 97.5C57 87.2827 48.2696 79 37.5 79C26.7304 79 18 87.2827 18 97.5C18 107.717 26.7304 116 37.5 116Z"
    fill="#2A2E30"
  />
  <rect x="36" y="49" width="102" height="131" rx="11" fill="#2A2E30" />
  <path
    d="M108.828 121.851V124.633L88.3047 116.539L91.9541 115.166L108.828 121.851ZM108.828 127.415V130.233L81.1504 119.285L84.7275 117.912L108.828 127.415ZM108.828 133.052V135.834L74.2852 122.176L77.6094 120.694L108.828 133.052ZM108.828 92.4023V95.1846L64.6016 112.709V109.927L108.828 92.4023ZM108.828 86.8018V89.6201L64.6016 107.108V104.326L108.828 86.8018ZM108.828 98.0029V100.821L64.6016 118.31V115.527L108.828 98.0029ZM108.828 103.604V106.386L68.1064 122.501L108.828 138.616V141.398L64.6016 123.91V121.092L108.828 103.604Z"
    fill="white"
  />
  <path
    fill-rule="evenodd"
    clip-rule="evenodd"
    d="M214 147C230.569 147 244 134.24 244 118.5C244 102.76 230.569 90 214 90C197.431 90 184 102.76 184 118.5C184 134.24 197.431 147 214 147ZM214.5 137C225.27 137 234 128.717 234 118.5C234 108.283 225.27 100 214.5 100C203.73 100 195 108.283 195 118.5C195 128.717 203.73 137 214.5 137Z"
    fill="#F46530"
  />
  <rect x="114" y="71" width="102" height="131" rx="11" fill="#F46530" />
  <path
    d="M142.891 145.597V142.814L183.612 126.699L142.891 110.584V107.802L187.117 125.29V128.108L142.891 145.597ZM142.891 151.197V148.379L187.117 130.891V133.673L142.891 151.197ZM142.891 162.398V159.58L187.117 142.092V144.874L142.891 162.398ZM142.891 156.798V154.016L187.117 136.491V139.273L142.891 156.798ZM142.891 116.148V113.366L177.434 127.024L174.109 128.506L142.891 116.148ZM142.891 121.785V118.967L170.568 129.915L166.991 131.288L142.891 121.785ZM142.891 127.35V124.567L163.414 132.661L159.765 134.034L142.891 127.35Z"
    fill="white"
  />
</svg>
